<svg width="96" height="46" viewBox="0 0 96 46" fill="none" xmlns="http://www.w3.org/2000/svg">
<rect x="0.550415" width="94.8992" height="46" fill="#F14A00"/>
<path d="M14.5081 39.2926C14.7449 39.2926 14.9371 39.2661 15.0848 39.2133C15.365 39.1119 15.5051 38.9236 15.5051 38.6482C15.5051 38.4873 15.4356 38.3628 15.2966 38.2747C15.1576 38.1888 14.9393 38.1128 14.6417 38.0467L14.1334 37.931C13.6338 37.8165 13.2884 37.692 13.0973 37.5576C12.7736 37.3329 12.6118 36.9815 12.6118 36.5034C12.6118 36.0672 12.7682 35.7047 13.081 35.4161C13.3938 35.1275 13.8532 34.9832 14.4592 34.9832C14.9653 34.9832 15.3965 35.1198 15.7528 35.393C16.1112 35.664 16.2991 36.0583 16.3164 36.5761H15.352C15.3346 36.2831 15.2086 36.0749 14.974 35.9515C14.8176 35.87 14.6232 35.8292 14.3908 35.8292C14.1323 35.8292 13.9259 35.8821 13.7717 35.9878C13.6175 36.0936 13.5404 36.2412 13.5404 36.4307C13.5404 36.6047 13.6164 36.7347 13.7685 36.8206C13.8662 36.8779 14.0747 36.9451 14.394 37.0222L15.2217 37.2238C15.5844 37.3119 15.8581 37.4298 16.0427 37.5774C16.3295 37.8065 16.4728 38.1381 16.4728 38.5721C16.4728 39.0172 16.3045 39.3873 15.9678 39.6825C15.6333 39.9756 15.1597 40.1221 14.5472 40.1221C13.9216 40.1221 13.4296 39.9778 13.0712 39.6891C12.7128 39.3983 12.5336 38.9996 12.5336 38.4928H13.4915C13.5219 38.7154 13.5816 38.8817 13.6707 38.9918C13.8336 39.1923 14.1127 39.2926 14.5081 39.2926Z" fill="#FFF6E9"/>
<path d="M20.0569 38.1194V35.1253H21.0768V38.1194C21.0768 38.6371 20.9975 39.0403 20.8389 39.3289C20.5435 39.8577 19.9798 40.1221 19.1479 40.1221C18.3159 40.1221 17.7512 39.8577 17.4536 39.3289C17.295 39.0403 17.2157 38.6371 17.2157 38.1194V35.1253H18.2356V38.1194C18.2356 38.4543 18.2747 38.6988 18.3529 38.853C18.4745 39.1262 18.7395 39.2628 19.1479 39.2628C19.5541 39.2628 19.818 39.1262 19.9396 38.853C20.0178 38.6988 20.0569 38.4543 20.0569 38.1194Z" fill="#FFF6E9"/>
<path d="M24.0777 38.245H23.0578V39.9965H22.0608V35.1253H24.1526C24.6348 35.1253 25.0193 35.2509 25.306 35.502C25.5928 35.7532 25.7361 36.1421 25.7361 36.6686C25.7361 37.2436 25.5928 37.6501 25.306 37.8881C25.0193 38.126 24.6098 38.245 24.0777 38.245ZM24.5469 37.2304C24.6772 37.1137 24.7423 36.9286 24.7423 36.6752C24.7423 36.4219 24.6761 36.2412 24.5436 36.1332C24.4133 36.0253 24.2297 35.9713 23.9929 35.9713H23.0578V37.4056H23.9929C24.2297 37.4056 24.4143 37.3472 24.5469 37.2304Z" fill="#FFF6E9"/>
<path d="M28.5285 38.245H27.5086V39.9965H26.5116V35.1253H28.6034C29.0856 35.1253 29.4701 35.2509 29.7568 35.502C30.0436 35.7532 30.1869 36.1421 30.1869 36.6686C30.1869 37.2436 30.0436 37.6501 29.7568 37.8881C29.4701 38.126 29.0607 38.245 28.5285 38.245ZM28.9977 37.2304C29.128 37.1137 29.1932 36.9286 29.1932 36.6752C29.1932 36.4219 29.1269 36.2412 28.9944 36.1332C28.8641 36.0253 28.6805 35.9713 28.4438 35.9713H27.5086V37.4056H28.4438C28.6805 37.4056 28.8652 37.3472 28.9977 37.2304Z" fill="#FFF6E9"/>
<path d="M30.9396 35.1253H31.9431V39.1207H34.3217V39.9965H30.9396V35.1253Z" fill="#FFF6E9"/>
<path d="M34.9408 35.1253H35.9378V39.9965H34.9408V35.1253Z" fill="#FFF6E9"/>
<path d="M40.2192 37.8682H37.8863V39.1207H40.545V39.9965H36.9055V35.1253H40.4277V35.9878H37.8863V37.0222H40.2192V37.8682Z" fill="#FFF6E9"/>
<path d="M43.3667 38.0863H42.3305V39.9965H41.3498V35.1253H43.7055C44.0422 35.1319 44.3007 35.1738 44.481 35.2509C44.6635 35.328 44.8177 35.4415 44.9437 35.5913C45.048 35.7146 45.1305 35.8512 45.1913 36.0011C45.2521 36.1509 45.2826 36.3216 45.2826 36.5133C45.2826 36.7446 45.225 36.9727 45.1099 37.1974C44.9947 37.4199 44.8047 37.5774 44.5397 37.67C44.7612 37.7603 44.9176 37.8892 45.0089 38.0566C45.1023 38.2218 45.149 38.4752 45.149 38.8167V39.1439C45.149 39.3664 45.1577 39.5173 45.175 39.5966C45.2011 39.7222 45.2619 39.8147 45.3575 39.8742V39.9965H44.2529C44.2225 39.8885 44.2008 39.8015 44.1878 39.7354C44.1617 39.5988 44.1476 39.4589 44.1454 39.3157L44.1389 38.863C44.1346 38.5523 44.0781 38.3452 43.9695 38.2417C43.863 38.1381 43.6621 38.0863 43.3667 38.0863ZM43.976 37.2007C44.1758 37.1081 44.2757 36.9253 44.2757 36.6521C44.2757 36.3569 44.1791 36.1586 43.9858 36.0572C43.8771 36 43.7142 35.9713 43.497 35.9713H42.3305V37.28H43.4677C43.6936 37.28 43.863 37.2536 43.976 37.2007Z" fill="#FFF6E9"/>
<path d="M47.8924 39.2926C48.1292 39.2926 48.3214 39.2661 48.4692 39.2133C48.7494 39.1119 48.8895 38.9236 48.8895 38.6482C48.8895 38.4873 48.82 38.3628 48.6809 38.2747C48.5419 38.1888 48.3236 38.1128 48.026 38.0467L47.5177 37.931C47.0181 37.8165 46.6728 37.692 46.4816 37.5576C46.1579 37.3329 45.9961 36.9815 45.9961 36.5034C45.9961 36.0672 46.1525 35.7047 46.4653 35.4161C46.7781 35.1275 47.2375 34.9832 47.8436 34.9832C48.3497 34.9832 48.7809 35.1198 49.1371 35.393C49.4955 35.664 49.6834 36.0583 49.7008 36.5761H48.7363C48.719 36.2831 48.593 36.0749 48.3584 35.9515C48.202 35.87 48.0076 35.8292 47.7751 35.8292C47.5166 35.8292 47.3103 35.8821 47.1561 35.9878C47.0018 36.0936 46.9247 36.2412 46.9247 36.4307C46.9247 36.6047 47.0008 36.7347 47.1528 36.8206C47.2506 36.8779 47.4591 36.9451 47.7784 37.0222L48.606 37.2238C48.9688 37.3119 49.2424 37.4298 49.4271 37.5774C49.7138 37.8065 49.8572 38.1381 49.8572 38.5721C49.8572 39.0172 49.6888 39.3873 49.3521 39.6825C49.0176 39.9756 48.5441 40.1221 47.9315 40.1221C47.3059 40.1221 46.8139 39.9778 46.4555 39.6891C46.0971 39.3983 45.9179 38.9996 45.9179 38.4928H46.8759C46.9063 38.7154 46.966 38.8817 47.0551 38.9918C47.218 39.1923 47.4971 39.2926 47.8924 39.2926Z" fill="#FFF6E9"/>
<path d="M53.4022 41.3613L53.1708 41.0408C53.021 40.8469 52.8613 40.5583 52.6919 40.1749C52.3899 39.4898 52.239 38.8156 52.239 38.1524C52.239 37.5488 52.3661 36.9495 52.6202 36.3547C52.7918 35.9493 53.0427 35.5131 53.3729 35.046H54.0734L53.8746 35.4161C53.6009 35.925 53.4109 36.4582 53.3044 37.0156C53.2349 37.3813 53.2002 37.7801 53.2002 38.2119C53.2002 38.8861 53.2968 39.5063 53.4902 40.0725C53.6031 40.4074 53.803 40.837 54.0897 41.3613H53.4022Z" fill="#FFF6E9"/>
<path d="M56.7191 38.245H55.6993V39.9965H54.7022V35.1253H56.7941C57.2763 35.1253 57.6608 35.2509 57.9475 35.502C58.2342 35.7532 58.3776 36.1421 58.3776 36.6686C58.3776 37.2436 58.2342 37.6501 57.9475 37.8881C57.6608 38.126 57.2513 38.245 56.7191 38.245ZM57.1883 37.2304C57.3186 37.1137 57.3838 36.9286 57.3838 36.6752C57.3838 36.4219 57.3176 36.2412 57.1851 36.1332C57.0547 36.0253 56.8712 35.9713 56.6344 35.9713H55.6993V37.4056H56.6344C56.8712 37.4056 57.0558 37.3472 57.1883 37.2304Z" fill="#FFF6E9"/>
<path d="M58.7751 35.1253H59.8471L60.8897 38.8233L61.9421 35.1253H62.9848L61.3459 39.9965H60.3977L58.7751 35.1253Z" fill="#FFF6E9"/>
<path d="M67.0707 35.1253V35.9878H65.6338V39.9965H64.6237V35.9878H63.1803V35.1253H67.0707Z" fill="#FFF6E9"/>
<path d="M68.1394 41.0408L67.9081 41.3613H67.2206C67.5073 40.837 67.7071 40.4074 67.8201 40.0725C68.0134 39.5063 68.1101 38.8861 68.1101 38.2119C68.1101 37.7801 68.0753 37.3813 68.0058 37.0156C67.8994 36.4582 67.7093 35.925 67.4356 35.4161L67.2368 35.046H67.9374C68.2676 35.5131 68.5184 35.9493 68.69 36.3547C68.9442 36.9495 69.0713 37.5488 69.0713 38.1524C69.0713 38.8156 68.9203 39.4898 68.6184 40.1749C68.4489 40.5583 68.2893 40.8469 68.1394 41.0408Z" fill="#FFF6E9"/>
<path d="M71.7398 35.1253H72.7433V39.1207H75.1219V39.9965H71.7398V35.1253Z" fill="#FFF6E9"/>
<path d="M78.8135 35.1253V35.9878H77.3766V39.9965H76.3666V35.9878H74.9231V35.1253H78.8135Z" fill="#FFF6E9"/>
<path d="M81.4723 39.9965H79.4033V35.1253H81.4723C81.7699 35.1297 82.0175 35.165 82.2152 35.2311C82.5519 35.3434 82.8245 35.5494 83.033 35.849C83.2003 36.0914 83.3143 36.3536 83.3751 36.6356C83.4359 36.9176 83.4663 37.1864 83.4663 37.4419C83.4663 38.0897 83.3382 38.6382 83.0819 39.0877C82.7343 39.6936 82.1978 39.9965 81.4723 39.9965ZM82.2184 36.3679C82.0642 36.1035 81.759 35.9713 81.3028 35.9713H80.3775V39.1505H81.3028C81.7764 39.1505 82.1066 38.9136 82.2934 38.44C82.3955 38.18 82.4465 37.8704 82.4465 37.5113C82.4465 37.0156 82.3705 36.6345 82.2184 36.3679Z" fill="#FFF6E9"/>
<rect x="2.09656" y="1.54622" width="91.8067" height="28.7983" fill="#FFF6E9"/>
<path d="M20.3067 18.4501C20.3067 19.6292 20.0995 20.6621 19.6851 21.5486C19.2793 22.4266 18.7182 23.1582 18.0016 23.7435C17.2937 24.3287 16.4606 24.7677 15.5023 25.0603C14.5526 25.353 13.5296 25.4993 12.4332 25.4993C12.0101 25.4993 11.5439 25.4434 11.0346 25.3315C10.5339 25.2196 10.0245 25.0819 9.5065 24.9183C8.9885 24.7462 8.48778 24.5654 8.00432 24.3761C7.52949 24.1781 7.10646 23.9931 6.73523 23.8209L7.30502 18.5017C8.03885 18.9407 8.85037 19.2763 9.7396 19.5087C10.6375 19.7325 11.518 19.8444 12.3814 19.8444C12.5454 19.8444 12.744 19.8401 12.9771 19.8315C13.2102 19.8143 13.4303 19.7756 13.6375 19.7153C13.8533 19.6465 14.0346 19.5475 14.1814 19.4184C14.3282 19.2893 14.4015 19.1042 14.4015 18.8632C14.4015 18.6997 14.3497 18.562 14.2461 18.4501C14.1425 18.3296 14.0087 18.2349 13.8447 18.166C13.6807 18.0886 13.4951 18.0326 13.2879 17.9982C13.0807 17.9551 12.8778 17.925 12.6792 17.9078C12.4806 17.8906 12.295 17.882 12.1224 17.882C11.9497 17.882 11.8116 17.882 11.708 17.882C10.9655 17.882 10.2878 17.7529 9.67485 17.4947C9.07052 17.2365 8.54821 16.8793 8.10791 16.4231C7.67625 15.9583 7.33956 15.4117 7.09783 14.7834C6.85609 14.1465 6.73523 13.4579 6.73523 12.7177C6.73523 11.7021 6.93811 10.794 7.34387 9.99354C7.75827 9.18446 8.30648 8.5002 8.9885 7.94073C9.67916 7.37266 10.4691 6.938 11.3583 6.63675C12.2475 6.3355 13.167 6.18487 14.1166 6.18487C14.5397 6.18487 14.9757 6.20209 15.4246 6.23652C15.8735 6.26234 16.3181 6.31398 16.7584 6.39145C17.2073 6.46891 17.6433 6.56789 18.0664 6.68839C18.4894 6.80889 18.8908 6.95952 19.2707 7.14027L18.7786 12.382C18.1915 12.1841 17.5743 12.0205 16.9268 11.8914C16.2879 11.7537 15.662 11.6848 15.049 11.6848C14.9368 11.6848 14.79 11.6891 14.6087 11.6978C14.4361 11.6978 14.2505 11.7107 14.0519 11.7365C13.862 11.7537 13.6677 11.7838 13.4692 11.8269C13.2706 11.8699 13.0936 11.9301 12.9382 12.0076C12.7828 12.0765 12.6576 12.1711 12.5627 12.2916C12.4677 12.4121 12.4245 12.5542 12.4332 12.7177C12.4418 12.9071 12.5109 13.062 12.6404 13.1825C12.7785 13.2944 12.9512 13.3848 13.1584 13.4536C13.3742 13.5139 13.6073 13.5569 13.8576 13.5827C14.1166 13.6085 14.3713 13.6258 14.6217 13.6344C14.8721 13.6344 15.1052 13.6344 15.321 13.6344C15.5368 13.6258 15.7138 13.6301 15.8519 13.6473C16.5426 13.6903 17.1642 13.8366 17.7167 14.0862C18.2692 14.3358 18.7354 14.6672 19.1153 15.0804C19.5038 15.4935 19.7973 15.9884 19.9959 16.5651C20.2031 17.1332 20.3067 17.7615 20.3067 18.4501Z" fill="#F14A00"/>
<path d="M37.258 24.2082L30.8349 25.0345L30.0579 22.1167H27.1053L26.4579 25.0345L19.8534 24.389L25.0075 7.19191L32.2076 6.83041L37.258 24.2082ZM29.5917 18.166L28.6075 13.6731L27.6492 18.166H29.5917Z" fill="#F14A00"/>
<path d="M57.5504 6.49473L56.3591 25.4477L50.4539 25.7059L50.5057 15.713L47.8381 23.7693H45.5589L43.5128 16.5651L43.4869 24.9312L37.5041 25.112L37.7631 7.26937L44.4193 7.01116L47.0611 15.5581L50.5834 6.49473H57.5504Z" fill="#F14A00"/>
<path d="M73.5953 12.8984C73.5953 13.7333 73.4701 14.4736 73.2198 15.1191C72.9694 15.7646 72.6241 16.3284 72.1838 16.8104C71.7521 17.2924 71.2428 17.7012 70.6557 18.0369C70.0686 18.3726 69.4384 18.648 68.765 18.8632C68.1003 19.0698 67.4096 19.2247 66.693 19.328C65.9765 19.4227 65.2729 19.4743 64.5822 19.4829V25.4993H58.5476C58.5476 23.5283 58.5519 21.5658 58.5605 19.612C58.5692 17.6582 58.5821 15.6872 58.5994 13.6989C58.6167 12.6488 58.621 11.5988 58.6123 10.5487C58.6037 9.49863 58.6253 8.43995 58.6771 7.37266C59.7821 7.04559 60.8872 6.80028 61.9922 6.63675C63.0973 6.47321 64.2369 6.39145 65.411 6.39145C66.0758 6.39145 66.7405 6.44739 67.4053 6.55928C68.07 6.66257 68.7046 6.83041 69.3089 7.0628C69.9219 7.2952 70.4874 7.58784 71.0053 7.94073C71.532 8.28502 71.9852 8.69816 72.3651 9.18016C72.7449 9.66216 73.0428 10.213 73.2586 10.8327C73.4831 11.4438 73.5953 12.1324 73.5953 12.8984ZM67.8456 13.3374C67.8456 12.7779 67.6729 12.3433 67.3276 12.0334C66.9909 11.715 66.5506 11.5557 66.0067 11.5557C65.8254 11.5557 65.6355 11.5729 65.4369 11.6074C65.247 11.6332 65.0657 11.6676 64.893 11.7107L64.7376 15.4806C64.8585 15.4978 64.975 15.5064 65.0873 15.5064C65.1995 15.5064 65.316 15.5064 65.4369 15.5064C65.7477 15.5064 66.0456 15.4548 66.3304 15.3515C66.624 15.2482 66.883 15.1019 67.1074 14.9125C67.3319 14.7146 67.5089 14.4865 67.6384 14.2283C67.7765 13.9614 67.8456 13.6645 67.8456 13.3374Z" fill="#F14A00"/>
<path d="M89.2646 24.2082L82.8415 25.0345L82.0645 22.1167H79.112L78.4645 25.0345L71.86 24.389L77.0141 7.19191L84.2142 6.83041L89.2646 24.2082ZM81.5983 18.166L80.6141 13.6731L79.6558 18.166H81.5983Z" fill="#F14A00"/>
</svg>
